<svg  viewBox="0 0 167 285" fill="none" xmlns="http://www.w3.org/2000/svg">
<path d="M163.701 135.9L30.652 2.857C28.748 0.955 26.557 0 24.084 0C21.61 0 19.42 0.955 17.517 2.857L3.24404 17.133C1.33804 19.036 0.389038 21.222 0.389038 23.7C0.389038 26.178 1.33804 28.364 3.24404 30.267L115.448 142.471L3.24404 254.677C1.33804 256.58 0.389038 258.77 0.389038 261.241C0.389038 263.718 1.33804 265.908 3.24404 267.811L17.518 282.082C19.421 283.987 21.611 284.936 24.085 284.936C26.558 284.936 28.748 283.985 30.652 282.082L163.694 149.038C165.596 147.136 166.548 144.945 166.548 142.471C166.548 139.997 165.603 137.807 163.701 135.9Z"/>
</svg>
