<svg viewBox="0 0 439 366" fill="none" xmlns="http://www.w3.org/2000/svg">
<path d="M420.265 292.897H18.274C13.322 292.897 9.039 294.71 5.423 298.325C1.807 301.938 0 306.224 0 311.172V347.72C0 352.669 1.807 356.95 5.424 360.568C9.043 364.181 13.326 365.992 18.275 365.992H420.266C425.214 365.992 429.495 364.181 433.113 360.568C436.727 356.951 438.534 352.67 438.534 347.72V311.172C438.534 306.224 436.734 301.939 433.113 298.325C429.495 294.711 425.217 292.897 420.265 292.897Z" />
<path d="M433.112 5.96799C429.495 2.35099 425.214 0.541992 420.265 0.541992H18.274C13.322 0.541992 9.039 2.35099 5.423 5.96799C1.807 9.58299 0 13.866 0 18.813V55.36C0 60.309 1.807 64.589 5.424 68.207C9.043 71.825 13.326 73.631 18.275 73.631H420.266C425.214 73.631 429.495 71.824 433.113 68.207C436.727 64.59 438.534 60.309 438.534 55.36V18.813C438.533 13.866 436.729 9.58299 433.112 5.96799Z" />
<path d="M420.265 146.72H18.274C13.322 146.72 9.039 148.529 5.423 152.146C1.807 155.761 0 160.044 0 164.992V201.539C0 206.487 1.807 210.775 5.424 214.386C9.043 218 13.326 219.814 18.275 219.814H420.266C425.214 219.814 429.495 218.001 433.113 214.386C436.727 210.776 438.534 206.488 438.534 201.539V164.992C438.534 160.044 436.727 155.761 433.113 152.145C429.495 148.528 425.217 146.72 420.265 146.72Z" />
</svg>
