<svg width="15" height="15" viewBox="0 0 15 15" fill="none" xmlns="http://www.w3.org/2000/svg">
<path d="M7.50337 3.68165C5.39165 3.68165 3.68833 5.38497 3.68833 7.49669C3.68833 9.60841 5.39165 11.3117 7.50337 11.3117C9.61509 11.3117 11.3184 9.60841 11.3184 7.49669C11.3184 5.38497 9.61509 3.68165 7.50337 3.68165ZM7.50337 9.97696C6.13872 9.97696 5.0231 8.86466 5.0231 7.49669C5.0231 6.12872 6.1354 5.01642 7.50337 5.01642C8.87134 5.01642 9.98364 6.12872 9.98364 7.49669C9.98364 8.86466 8.86802 9.97696 7.50337 9.97696ZM12.3643 3.5256C12.3643 4.02032 11.9659 4.41544 11.4745 4.41544C10.9797 4.41544 10.5846 4.017 10.5846 3.5256C10.5846 3.03419 10.9831 2.63575 11.4745 2.63575C11.9659 2.63575 12.3643 3.03419 12.3643 3.5256ZM14.8911 4.42872C14.8346 3.23673 14.5624 2.18087 13.6891 1.31095C12.8192 0.441028 11.7633 0.168762 10.5713 0.108997C9.34282 0.03927 5.6606 0.03927 4.43208 0.108997C3.24341 0.165442 2.18755 0.437707 1.31431 1.30763C0.441065 2.17755 0.172119 3.23341 0.112354 4.4254C0.042627 5.65392 0.042627 9.33614 0.112354 10.5647C0.168799 11.7567 0.441065 12.8125 1.31431 13.6824C2.18755 14.5524 3.24009 14.8246 4.43208 14.8844C5.6606 14.9541 9.34282 14.9541 10.5713 14.8844C11.7633 14.8279 12.8192 14.5557 13.6891 13.6824C14.559 12.8125 14.8313 11.7567 14.8911 10.5647C14.9608 9.33614 14.9608 5.65724 14.8911 4.42872ZM13.304 11.8828C13.045 12.5336 12.5436 13.035 11.8895 13.2973C10.91 13.6858 8.58579 13.5961 7.50337 13.5961C6.42095 13.5961 4.09341 13.6824 3.11724 13.2973C2.46645 13.0383 1.96509 12.5369 1.70278 11.8828C1.31431 10.9033 1.40396 8.57911 1.40396 7.49669C1.40396 6.41427 1.31763 4.08673 1.70278 3.11056C1.96177 2.45978 2.46313 1.95841 3.11724 1.69611C4.09673 1.30763 6.42095 1.39728 7.50337 1.39728C8.58579 1.39728 10.9133 1.31095 11.8895 1.69611C12.5403 1.95509 13.0417 2.45646 13.304 3.11056C13.6924 4.09005 13.6028 6.41427 13.6028 7.49669C13.6028 8.57911 13.6924 10.9067 13.304 11.8828Z" fill="white"/>
</svg>
