<svg width="14" height="11" viewBox="0 0 14 11" fill="none" xmlns="http://www.w3.org/2000/svg">
<path d="M12.1637 2.85216C12.1719 2.96763 12.1719 3.08314 12.1719 3.19861C12.1719 6.7208 9.49113 10.7792 4.59137 10.7792C3.08185 10.7792 1.67957 10.342 0.5 9.58313C0.714475 9.60787 0.920672 9.61612 1.1434 9.61612C2.38894 9.61612 3.53553 9.19545 4.45114 8.47781C3.27982 8.45305 2.29821 7.68592 1.96001 6.63008C2.125 6.65481 2.28996 6.67131 2.4632 6.67131C2.70241 6.67131 2.94164 6.6383 3.16434 6.58059C1.94353 6.33311 1.0279 5.26079 1.0279 3.96574V3.93276C1.38258 4.13073 1.79505 4.25446 2.2322 4.27093C1.51456 3.7925 1.0444 2.97589 1.0444 2.05202C1.0444 1.55711 1.17636 1.10343 1.40733 0.707487C2.71889 2.32424 4.69034 3.38005 6.90098 3.49556C6.85974 3.29758 6.83499 3.09139 6.83499 2.88516C6.83499 1.41688 8.02281 0.220825 9.49933 0.220825C10.2665 0.220825 10.9593 0.542524 11.446 1.06219C12.0482 0.946718 12.6256 0.723991 13.137 0.418796C12.939 1.03746 12.5183 1.55713 11.9657 1.88706C12.5019 1.82935 13.0215 1.68084 13.4999 1.47464C13.1371 2.00254 12.6834 2.47269 12.1637 2.85216Z" fill="white"/>
</svg>
