<svg width="11" height="8" viewBox="0 0 11 8" fill="none" xmlns="http://www.w3.org/2000/svg">
<path d="M10.5195 1.29883C10.5918 1.05469 10.5195 0.875 10.1719 0.875H9.02148C8.72852 0.875 8.59375 1.0293 8.52148 1.20117C8.52148 1.20117 7.93555 2.62891 7.10742 3.55469C6.83984 3.82227 6.7168 3.9082 6.57031 3.9082C6.49805 3.9082 6.38672 3.82227 6.38672 3.57812V1.29883C6.38672 1.00586 6.30469 0.875 6.0625 0.875H4.25391C4.07031 0.875 3.96094 1.01172 3.96094 1.13867C3.96094 1.41602 4.375 1.48047 4.41797 2.26172V3.95703C4.41797 4.32812 4.35156 4.39648 4.20508 4.39648C3.81445 4.39648 2.86523 2.96289 2.30273 1.32227C2.18945 1.00391 2.07812 0.875 1.7832 0.875H0.632812C0.304687 0.875 0.238281 1.0293 0.238281 1.20117C0.238281 1.50586 0.628906 3.01953 2.05664 5.01953C3.00781 6.38477 4.34766 7.125 5.56641 7.125C6.29883 7.125 6.38867 6.96094 6.38867 6.67773C6.38867 5.37305 6.32227 5.25 6.68945 5.25C6.85937 5.25 7.15234 5.33594 7.83594 5.99414C8.61719 6.77539 8.74609 7.125 9.18359 7.125H10.334C10.6621 7.125 10.8281 6.96094 10.7324 6.63672C10.5137 5.95508 9.03516 4.55273 8.96875 4.45898C8.79883 4.24023 8.84766 4.14258 8.96875 3.94727C8.9707 3.94531 10.375 1.96875 10.5195 1.29883Z" fill="white"/>
</svg>
